# xmcd
#
# Track frame offsets: 
#        150
#        17086
#        30913
#        46958
#        61637
#        78707
#        98405
#        118850
#        135267
#        148646
#        164623
#
# Disc length: 2444 seconds
#
# Revision: 0
# Processed by: cddbd v1.5.2PL0 Copyright (c) Steve Scherf et al.
# Submitted via: ExactAudioCopy v1.0b1
#
DISCID=83098a0b
DTITLE=Kjell Gustavsson and the Rhythm 'n' Blues Orchestra - The Boogi
DTITLE=e Boys
DYEAR=2010
DGENRE=Blues
TTITLE0=The Boogie Boys
TTITLE1=Cruise Control
TTITLE2=Bourbon Street Mama
TTITLE3=Bedroom Queen
TTITLE4=Would It Be Me
TTITLE5=Little By Little
TTITLE6=Don't
TTITLE7=Mojo Man
TTITLE8=Smokin' Hot Boogie
TTITLE9=Accordion Thing
TTITLE10=Blinded By Darkness
EXTD=
EXTT0=
EXTT1=
EXTT2=
EXTT3=
EXTT4=
EXTT5=
EXTT6=
EXTT7=
EXTT8=
EXTT9=
EXTT10=
PLAYORDER=
